<svg width="48" height="48" viewBox="0 0 48 48" fill="none" xmlns="http://www.w3.org/2000/svg">
<g clip-path="url(#clip0)">
<rect width="34.0427" height="40.1205" rx="2.52632" transform="matrix(1 0 -0.0704846 0.997513 12.2731 4.3502)" fill="#FAE3D4"/>
<g filter="url(#filter0_d)">
<rect width="34.0427" height="46.31" rx="2.52632" transform="matrix(1 0 -0.0704846 0.997513 8.73779 0.842102)" fill="#FFDCC4"/>
</g>
<g filter="url(#filter1_d)">
<path d="M1.30444 28.4251L6.89663 33.5671L7.12879 31.8168L1.30444 28.4251ZM11.0204 18.0175L16.5979 23.1753L16.8209 21.4817L11.0204 18.0175Z" fill="#757575"/>
<path d="M6.88108 33.5242L1.46152 28.5409L7.10608 31.8279L6.88108 33.5242ZM16.5824 23.1323L11.1828 18.139L16.7983 21.4927L16.5824 23.1323Z" stroke="#62E1EF" stroke-opacity="0.3" stroke-width="0.0421053"/>
<path d="M11.0204 18.0175L3.80388 9.68334L1.53804 26.6731L11.0204 18.0175ZM11.0204 18.0175L11.2448 16.3223L3.80388 9.68334L11.0204 18.0175Z" fill="#13829B"/>
<path d="M1.56655 26.6186L3.81857 9.73246L10.991 18.0157L1.56655 26.6186ZM11.0056 17.9683L4.03374 9.91664L11.2225 16.3306L11.0056 17.9683Z" stroke="#62E1EF" stroke-opacity="0.3" stroke-width="0.0421053"/>
<path d="M4.50749 26.5926L4.57684 28.3777L7.12877 31.8168L4.50749 26.5926ZM11.2448 16.3223L11.0204 18.0175L16.8209 21.4817L11.2448 16.3223ZM4.50749 26.5926L7.12877 31.8168L25.4196 27.9629L4.50749 26.5926ZM11.2448 16.3223L16.8209 21.4817L35.1331 17.6055L11.2448 16.3223Z" fill="#62E1EF"/>
<path d="M25.2654 27.9739L7.14031 31.7928L4.54279 26.6161L25.2654 27.9739ZM4.53231 26.689L7.00128 31.6096L4.59762 28.3704L4.53231 26.689ZM34.9725 17.6179L16.8272 21.4588L11.3019 16.3464L34.9725 17.6179ZM11.2604 16.3653L16.6587 21.3603L11.0431 18.0065L11.2604 16.3653Z" stroke="#62E1EF" stroke-opacity="0.3" stroke-width="0.0421053"/>
<path d="M11.2448 16.3223L30.6779 3.94861L3.80388 9.68334L11.2448 16.3223ZM11.0204 18.0175L1.53804 26.6731L19.8447 22.8023L11.0204 18.0175Z" fill="#13829B"/>
<path d="M3.84887 9.69527L30.5681 3.99357L11.2469 16.296L3.84887 9.69527ZM19.7843 22.7936L1.60936 26.6365L11.0235 18.0431L19.7843 22.7936Z" stroke="#62E1EF" stroke-opacity="0.3" stroke-width="0.0421053"/>
<path d="M29.5728 12.429L35.1331 17.6055L36.2311 9.13287L29.5728 12.429ZM19.8447 22.8023L1.53809 26.6732L25.4197 27.963L19.8447 22.8023ZM29.5728 12.429L11.2448 16.3223L35.1331 17.6055L29.5728 12.429ZM30.678 3.94863L29.5728 12.429L36.2311 9.13287L30.678 3.94863Z" fill="#29D2E4"/>
<path d="M29.5691 12.4543L35.0763 17.5814L11.4049 16.3098L29.5481 12.4558L29.5468 12.4654L29.5691 12.4543ZM30.6936 3.99198L36.1945 9.1275L29.5988 12.3927L30.6936 3.99198ZM29.6094 12.4344L36.2052 9.1692L35.1175 17.5622L29.6094 12.4344ZM25.3626 27.9388L1.69857 26.6607L19.8384 22.8252L25.3626 27.9388Z" stroke="#62E1EF" stroke-opacity="0.3" stroke-width="0.0421053"/>
<path d="M11.2448 16.3223L29.5727 12.429L30.6779 3.94863L11.2448 16.3223Z" fill="#13829B"/>
<path d="M30.6512 3.99059L29.5537 12.4115L11.3543 16.2775L30.6512 3.99059Z" stroke="#62E1EF" stroke-opacity="0.3" stroke-width="0.0421053"/>
<path d="M0.171265 36.9213L5.77069 42.0555L32.6955 36.4142L0.171265 36.9213Z" fill="#29D2E4"/>
<path d="M5.77695 42.0327L0.224474 36.9415L32.476 36.4386L5.77695 42.0327Z" stroke="#62E1EF" stroke-opacity="0.3" stroke-width="0.0421053"/>
<path d="M29.3515 14.1271L11.0204 18.0175L19.8446 22.8024L29.3515 14.1271ZM1.30439 28.4252L0.171299 36.9213L27.1193 31.255L1.30439 28.4252ZM29.3515 14.1271L19.8446 22.8024L19.6142 24.5573L29.3515 14.1271ZM19.6142 24.5573L1.30439 28.4252L27.1193 31.255L19.6142 24.5573Z" fill="#13829B"/>
<path d="M11.0806 18.0262L29.28 14.1638L19.8415 22.7767L11.0806 18.0262ZM19.8645 22.8127L28.9773 14.497L19.6437 24.495L19.8645 22.8127ZM19.6156 24.5867L27.0562 31.227L1.43745 28.4186L19.5895 24.5841L19.5848 24.6197L19.6156 24.5867ZM26.9859 31.2616L0.196103 36.8946L1.32254 28.4483L26.9859 31.2616Z" stroke="#62E1EF" stroke-opacity="0.3" stroke-width="0.0421053"/>
<path d="M29.3514 14.1271L27.1193 31.255L34.9131 19.302L29.3514 14.1271ZM27.1193 31.255L32.6955 36.4142L34.9131 19.302L27.1193 31.255ZM27.1193 31.255L0.171265 36.9213L32.6955 36.4142L27.1193 31.255Z" fill="#29D2E4"/>
<path d="M34.8858 19.3054L27.1521 31.1662L29.367 14.1704L34.8858 19.3054ZM0.389928 36.8968L27.113 31.2779L32.6426 36.3939L0.389928 36.8968ZM34.8804 19.3908L32.6798 36.371L27.1466 31.2516L34.8804 19.3908Z" stroke="#62E1EF" stroke-opacity="0.3" stroke-width="0.0421053"/>
<path d="M19.6143 24.5573L27.1193 31.255L29.3515 14.1271L19.6143 24.5573Z" fill="#13829B"/>
<path d="M19.6443 24.556L29.3221 14.1894L27.1036 31.2128L19.6443 24.556Z" stroke="#62E1EF" stroke-opacity="0.3" stroke-width="0.0421053"/>
</g>
</g>
<defs>
<filter id="filter0_d" x="5.22433" y="-0.421056" width="40.3319" height="49.5632" filterUnits="userSpaceOnUse" color-interpolation-filters="sRGB">
<feFlood flood-opacity="0" result="BackgroundImageFix"/>
<feColorMatrix in="SourceAlpha" type="matrix" values="0 0 0 0 0 0 0 0 0 0 0 0 0 0 0 0 0 0 127 0"/>
<feOffset dx="1.26316" dy="0.421053"/>
<feGaussianBlur stdDeviation="0.842105"/>
<feColorMatrix type="matrix" values="0 0 0 0 0 0 0 0 0 0 0 0 0 0 0 0 0 0 0.05 0"/>
<feBlend mode="normal" in2="BackgroundImageFix" result="effect1_dropShadow"/>
<feBlend mode="normal" in="SourceGraphic" in2="effect1_dropShadow" result="shape"/>
</filter>
<filter id="filter1_d" x="-5.55875" y="-0.096611" width="49.9271" height="58.4708" filterUnits="userSpaceOnUse" color-interpolation-filters="sRGB">
<feFlood flood-opacity="0" result="BackgroundImageFix"/>
<feColorMatrix in="SourceAlpha" type="matrix" values="0 0 0 0 0 0 0 0 0 0 0 0 0 0 0 0 0 0 127 0"/>
<feOffset dy="3.36842"/>
<feGaussianBlur stdDeviation="1.05263"/>
<feColorMatrix type="matrix" values="0 0 0 0 0 0 0 0 0 0 0 0 0 0 0 0 0 0 0.08 0"/>
<feBlend mode="normal" in2="BackgroundImageFix" result="effect1_dropShadow"/>
<feBlend mode="normal" in="SourceGraphic" in2="effect1_dropShadow" result="shape"/>
</filter>
<clipPath id="clip0">
<rect width="48" height="47.5789" fill="white"/>
</clipPath>
</defs>
</svg>
